<?xml version="1.0" encoding="UTF-8" standalone="no"?>
<!DOCTYPE svg PUBLIC "-//W3C//DTD SVG 1.1//EN" "http://www.w3.org/Graphics/SVG/1.1/DTD/svg11.dtd">
<!-- Generated by Microsoft Visio, SVG Export cloud_icon.svg Page-1 -->
<svg xmlns="http://www.w3.org/2000/svg" xmlns:xlink="http://www.w3.org/1999/xlink" xmlns:ev="http://www.w3.org/2001/xml-events"
		xmlns:v="http://schemas.microsoft.com/visio/2003/SVGExtensions/" width="0.694444in" height="0.405093in"
		viewBox="0 0 50 29.1667" xml:space="preserve" color-interpolation-filters="sRGB" class="st3">
	<v:documentProperties v:langID="1033" v:viewMarkup="false">
		<v:userDefs>
			<v:ud v:nameU="msvNoAutoConnect" v:val="VT0(1):26"/>
		</v:userDefs>
	</v:documentProperties>

	<style type="text/css">
	<![CDATA[
		.st1 {fill:#111012;stroke:none;stroke-linecap:round;stroke-linejoin:round;stroke-width:0.75}
		.st2 {fill:#f9f2ff;stroke:#f9f2ff;stroke-linecap:round;stroke-linejoin:round;stroke-width:0.25}
		.st3 {fill:none;fill-rule:evenodd;font-size:12px;overflow:visible;stroke-linecap:square;stroke-miterlimit:3}
	]]>
	</style>

	<g v:mID="4" v:index="1" v:groupContext="backgroundPage">
		<v:userDefs>
			<v:ud v:nameU="msvVisioCreated" v:prompt="" v:val="VT0(0):26"/>
		</v:userDefs>
		<title>VBackground-1</title>
		<v:pageProperties width="0.694444" height="0.405093" v:drawingScale="0.0138889" v:pageScale="0.0138889" v:drawingUnits="29"
				v:shadowOffsetX="9" v:shadowOffsetY="-9"/>
		<g id="shape1-1" v:mID="1" v:groupContext="shape">
			<title>Solid</title>
			<v:userDefs>
				<v:ud v:nameU="Background" v:val="VT0(0):26"/>
				<v:ud v:nameU="visVersion" v:val="VT0(15):26"/>
				<v:ud v:nameU="msvShapeCategories" v:prompt="" v:val="VT4(DoNotContain)"/>
				<v:ud v:nameU="msvVisioCreated" v:prompt="" v:val="VT0(0):26"/>
			</v:userDefs>
			<rect x="0" y="0" width="50" height="29.1667" class="st1"/>
		</g>
	</g>
	<g v:mID="0" v:index="2" v:groupContext="foregroundPage">
		<title>Page-1</title>
		<v:pageProperties v:drawingScale="0.0138889" v:pageScale="0.0138889" v:drawingUnits="29" v:shadowOffsetX="9"
				v:shadowOffsetY="-9"/>
		<v:layer v:name="Common Icons" v:index="0"/>
		<g id="group19-3" v:mID="19" v:groupContext="group" v:layerMember="0">
			<v:userDefs>
				<v:ud v:nameU="visVersion" v:prompt="" v:val="VT0(17):26"/>
				<v:ud v:nameU="visAltText" v:prompt="" v:val="VT4(Cloud)"/>
				<v:ud v:nameU="visAltDescription" v:prompt="" v:val="VT4(Cloud Icon.)"/>
				<v:ud v:nameU="Font" v:prompt="" v:val="VT0(243):26"/>
			</v:userDefs>
			<title>Cloud</title>
			<g id="shape20-4" v:mID="20" v:groupContext="shape" v:layerMember="0">
				<title>Sheet.20</title>
				<path d="M43.02 14.94 C42.84 14.94 42.61 14.94 42.43 14.94 C42.43 14.94 42.43 14.94 42.43 14.94 C42.43 12.04 41.02
							 9.39 38.73 7.73 C36.38 6.08 33.39 5.67 30.69 6.61 C28.46 2.24 23.53 0 18.84 1.12 C14.14 2.24 10.74 6.49
							 10.74 11.4 C10.74 11.4 10.74 11.45 10.74 11.51 C7.51 10.98 4.28 12.34 2.29 14.94 C0.35 17.59 0 21.08
							 1.35 24.03 C2.76 26.98 5.69 28.93 8.92 29.11 L8.92 29.17 L42.96 29.17 C46.83 29.17 50 25.98 50 22.08
							 C50 18.18 46.89 14.94 43.02 14.94 Z" class="st2"/>
			</g>
		</g>
	</g>
</svg>
