<?xml version="1.0" encoding="UTF-8" standalone="no"?>
<!DOCTYPE svg PUBLIC "-//W3C//DTD SVG 1.1//EN" "http://www.w3.org/Graphics/SVG/1.1/DTD/svg11.dtd">
<!-- Generated by Microsoft Visio, SVG Export database_icon.svg Page-1 -->
<svg xmlns="http://www.w3.org/2000/svg" xmlns:xlink="http://www.w3.org/1999/xlink" xmlns:ev="http://www.w3.org/2001/xml-events"
		xmlns:v="http://schemas.microsoft.com/visio/2003/SVGExtensions/" width="0.694444in" height="0.925926in"
		viewBox="0 0 50 66.6667" xml:space="preserve" color-interpolation-filters="sRGB" class="st3">
	<v:documentProperties v:langID="1033" v:viewMarkup="false">
		<v:userDefs>
			<v:ud v:nameU="msvNoAutoConnect" v:val="VT0(1):26"/>
		</v:userDefs>
	</v:documentProperties>

	<style type="text/css">
	<![CDATA[
		.st1 {fill:#111012;stroke:none;stroke-linecap:round;stroke-linejoin:round;stroke-width:0.75}
		.st2 {fill:#f9f2ff;stroke:#f9f2ff;stroke-linecap:round;stroke-linejoin:round;stroke-width:0.25}
		.st3 {fill:none;fill-rule:evenodd;font-size:12px;overflow:visible;stroke-linecap:square;stroke-miterlimit:3}
	]]>
	</style>

	<g v:mID="4" v:index="1" v:groupContext="backgroundPage">
		<v:userDefs>
			<v:ud v:nameU="msvVisioCreated" v:prompt="" v:val="VT0(0):26"/>
		</v:userDefs>
		<title>VBackground-1</title>
		<v:pageProperties width="0.694444" height="0.925926" v:drawingScale="0.0138889" v:pageScale="0.0138889" v:drawingUnits="29"
				v:shadowOffsetX="9" v:shadowOffsetY="-9"/>
		<g id="shape1-1" v:mID="1" v:groupContext="shape">
			<title>Solid</title>
			<v:userDefs>
				<v:ud v:nameU="Background" v:val="VT0(0):26"/>
				<v:ud v:nameU="visVersion" v:val="VT0(15):26"/>
				<v:ud v:nameU="msvShapeCategories" v:prompt="" v:val="VT4(DoNotContain)"/>
				<v:ud v:nameU="msvVisioCreated" v:prompt="" v:val="VT0(0):26"/>
			</v:userDefs>
			<rect x="0" y="0" width="50" height="66.6667" class="st1"/>
		</g>
	</g>
	<g v:mID="0" v:index="2" v:groupContext="foregroundPage">
		<title>Page-1</title>
		<v:pageProperties v:drawingScale="0.0138889" v:pageScale="0.0138889" v:drawingUnits="29" v:shadowOffsetX="9"
				v:shadowOffsetY="-9"/>
		<v:layer v:name="Common Icons" v:index="0"/>
		<g id="group9-3" v:mID="9" v:groupContext="group" v:layerMember="0">
			<v:userDefs>
				<v:ud v:nameU="visVersion" v:prompt="" v:val="VT0(17):26"/>
				<v:ud v:nameU="visAltText" v:prompt="" v:val="VT4(Database)"/>
				<v:ud v:nameU="visAltDescription" v:prompt="" v:val="VT4(Database Icon.)"/>
				<v:ud v:nameU="Font" v:prompt="" v:val="VT0(243):26"/>
			</v:userDefs>
			<title>Database</title>
			<g id="group10-4" v:mID="10" v:groupContext="group" v:layerMember="0">
				<title>Sheet.10</title>
				<g id="shape11-5" v:mID="11" v:groupContext="shape" v:layerMember="0" transform="translate(0,-52.6316)">
					<title>Sheet.11</title>
					<ellipse cx="25" cy="59.6492" rx="25" ry="7.01754" class="st2"/>
				</g>
				<g id="shape12-7" v:mID="12" v:groupContext="shape" v:layerMember="0" transform="translate(0,-35.0877)">
					<title>Sheet.12</title>
					<path d="M42.86 59.65 C41.79 59.65 41.07 58.95 41.07 57.89 C41.07 56.84 41.79 56.14 42.86 56.14 C43.93 56.14
								 44.64 56.84 44.64 57.89 C44.64 58.95 43.93 59.65 42.86 59.65 ZM25 52.63 C11.25 52.63 0 49.47 0 45.61
								 L0 59.65 C0 63.51 11.25 66.67 25 66.67 C38.75 66.67 50 63.51 50 59.65 L50 45.61 C50 49.47 38.75
								 52.63 25 52.63 Z" class="st2"/>
				</g>
				<g id="shape13-9" v:mID="13" v:groupContext="shape" v:layerMember="0" transform="translate(0,-17.5439)">
					<title>Sheet.13</title>
					<path d="M42.86 59.65 C41.79 59.65 41.07 58.95 41.07 57.89 C41.07 56.84 41.79 56.14 42.86 56.14 C43.93 56.14
								 44.64 56.84 44.64 57.89 C44.64 58.95 43.93 59.65 42.86 59.65 ZM25 52.63 C11.25 52.63 0 49.47 0 45.61
								 L0 59.65 C0 63.51 11.25 66.67 25 66.67 C38.75 66.67 50 63.51 50 59.65 L50 45.61 C50 49.47 38.75
								 52.63 25 52.63 Z" class="st2"/>
				</g>
				<g id="shape14-11" v:mID="14" v:groupContext="shape" v:layerMember="0">
					<title>Sheet.14</title>
					<path d="M42.86 59.65 C41.79 59.65 41.07 58.95 41.07 57.89 C41.07 56.84 41.79 56.14 42.86 56.14 C43.93 56.14
								 44.64 56.84 44.64 57.89 C44.64 58.95 43.93 59.65 42.86 59.65 ZM25 52.63 C11.25 52.63 0 49.47 0 45.61
								 L0 59.65 C0 63.51 11.25 66.67 25 66.67 C38.75 66.67 50 63.51 50 59.65 L50 45.61 C50 49.47 38.75
								 52.63 25 52.63 Z" class="st2"/>
				</g>
			</g>
		</g>
	</g>
</svg>
