<svg xmlns="http://www.w3.org/2000/svg" xmlns:ev="http://www.w3.org/2001/xml-events" xmlns:xlink="http://www.w3.org/1999/xlink" width="66.667" height="38.889" class="st3" color-interpolation-filters="sRGB" viewBox="0 0 50 29.167" xml:space="preserve"><style type="text/css">.st1,.st2{fill:#111012;stroke:none;stroke-linecap:round;stroke-linejoin:round;stroke-width:.75}.st2{fill:#f9f2ff;stroke:#f9f2ff;stroke-width:.25}.st3{fill:none;fill-rule:evenodd;font-size:12px;overflow:visible;stroke-linecap:square;stroke-miterlimit:3}</style><g><title>VBackground-1</title><g id="shape1-1"><title>Solid</title><rect width="50" height="29.167" x="0" y="0" class="st1"/></g></g><g><title>Page-1</title><g id="group19-3"><title>Cloud</title><g id="shape20-4"><title>Sheet.20</title><path d="M43.02 14.94 C42.84 14.94 42.61 14.94 42.43 14.94 C42.43 14.94 42.43 14.94 42.43 14.94 C42.43 12.04 41.02 9.39 38.73 7.73 C36.38 6.08 33.39 5.67 30.69 6.61 C28.46 2.24 23.53 0 18.84 1.12 C14.14 2.24 10.74 6.49 10.74 11.4 C10.74 11.4 10.74 11.45 10.74 11.51 C7.51 10.98 4.28 12.34 2.29 14.94 C0.35 17.59 0 21.08 1.35 24.03 C2.76 26.98 5.69 28.93 8.92 29.11 L8.92 29.17 L42.96 29.17 C46.83 29.17 50 25.98 50 22.08 C50 18.18 46.89 14.94 43.02 14.94 Z" class="st2"/></g></g></g></svg>