<svg xmlns="http://www.w3.org/2000/svg" xmlns:ev="http://www.w3.org/2001/xml-events" xmlns:xlink="http://www.w3.org/1999/xlink" width="66.667" height="88.889" class="st3" color-interpolation-filters="sRGB" viewBox="0 0 50 66.667" xml:space="preserve"><style type="text/css">.st1,.st2{fill:#111012;stroke:none;stroke-linecap:round;stroke-linejoin:round;stroke-width:.75}.st2{fill:#f9f2ff;stroke:#f9f2ff;stroke-width:.25}.st3{fill:none;fill-rule:evenodd;font-size:12px;overflow:visible;stroke-linecap:square;stroke-miterlimit:3}</style><g><title>VBackground-1</title><g id="shape1-1"><title>Solid</title><rect width="50" height="66.667" x="0" y="0" class="st1"/></g></g><g><title>Page-1</title><g id="group9-3"><title>Database</title><g id="group10-4"><title>Sheet.10</title><g id="shape11-5" transform="translate(0,-52.6316)"><title>Sheet.11</title><ellipse cx="25" cy="59.649" class="st2" rx="25" ry="7.018"/></g><g id="shape12-7" transform="translate(0,-35.0877)"><title>Sheet.12</title><path d="M42.86 59.65 C41.79 59.65 41.07 58.95 41.07 57.89 C41.07 56.84 41.79 56.14 42.86 56.14 C43.93 56.14 44.64 56.84 44.64 57.89 C44.64 58.95 43.93 59.65 42.86 59.65 ZM25 52.63 C11.25 52.63 0 49.47 0 45.61 L0 59.65 C0 63.51 11.25 66.67 25 66.67 C38.75 66.67 50 63.51 50 59.65 L50 45.61 C50 49.47 38.75 52.63 25 52.63 Z" class="st2"/></g><g id="shape13-9" transform="translate(0,-17.5439)"><title>Sheet.13</title><path d="M42.86 59.65 C41.79 59.65 41.07 58.95 41.07 57.89 C41.07 56.84 41.79 56.14 42.86 56.14 C43.93 56.14 44.64 56.84 44.64 57.89 C44.64 58.95 43.93 59.65 42.86 59.65 ZM25 52.63 C11.25 52.63 0 49.47 0 45.61 L0 59.65 C0 63.51 11.25 66.67 25 66.67 C38.75 66.67 50 63.51 50 59.65 L50 45.61 C50 49.47 38.75 52.63 25 52.63 Z" class="st2"/></g><g id="shape14-11"><title>Sheet.14</title><path d="M42.86 59.65 C41.79 59.65 41.07 58.95 41.07 57.89 C41.07 56.84 41.79 56.14 42.86 56.14 C43.93 56.14 44.64 56.84 44.64 57.89 C44.64 58.95 43.93 59.65 42.86 59.65 ZM25 52.63 C11.25 52.63 0 49.47 0 45.61 L0 59.65 C0 63.51 11.25 66.67 25 66.67 C38.75 66.67 50 63.51 50 59.65 L50 45.61 C50 49.47 38.75 52.63 25 52.63 Z" class="st2"/></g></g></g></g></svg>