<svg xmlns="http://www.w3.org/2000/svg" xmlns:ev="http://www.w3.org/2001/xml-events" xmlns:xlink="http://www.w3.org/1999/xlink" width="66.667" height="50" class="st3" color-interpolation-filters="sRGB" viewBox="0 0 50 37.5" xml:space="preserve"><style type="text/css">.st1,.st2{fill:#111012;stroke:none;stroke-linecap:round;stroke-linejoin:round;stroke-width:.75}.st2{fill:#f9f2ff;stroke:#f9f2ff;stroke-width:.25}.st3{fill:none;fill-rule:evenodd;font-size:12px;overflow:visible;stroke-linecap:square;stroke-miterlimit:3}</style><g><title>VBackground-1</title><g id="shape1-1"><title>Solid</title><rect width="50" height="37.5" x="0" y="0" class="st1"/></g></g><g><title>Page-1</title><g id="group15-3"><title>Hard drive</title><g id="group16-4"><title>Sheet.16</title><g id="shape17-5" transform="translate(0,-10.7468)"><title>Sheet.17</title><path d="M50 37.5 L0 37.5 L8.06 10.75 L41.94 10.75 L50 37.5 Z" class="st2"/></g><g id="shape18-7"><title>Sheet.18</title><path d="M0 28.98 L0 37.5 L50 37.5 L50 28.98 L0 28.98 ZM33.06 35.37 C31.91 35.37 30.97 34.46 30.97 33.33 C30.97 32.2 31.91 31.29 33.06 31.29 C34.21 31.29 35.14 32.2 35.14 33.33 C35.14 34.46 34.21 35.37 33.06 35.37 ZM38.89 35.37 C37.74 35.37 36.81 34.46 36.81 33.33 C36.81 32.2 37.74 31.29 38.89 31.29 C40.04 31.29 40.97 32.2 40.97 33.33 C40.97 34.46 40.04 35.37 38.89 35.37 ZM44.72 35.37 C43.57 35.37 42.64 34.46 42.64 33.33 C42.64 32.2 43.57 31.29 44.72 31.29 C45.87 31.29 46.81 32.2 46.81 33.33 C46.81 34.46 45.87 35.37 44.72 35.37 Z" class="st2"/></g></g></g></g></svg>