<svg xmlns="http://www.w3.org/2000/svg" xmlns:ev="http://www.w3.org/2001/xml-events" xmlns:xlink="http://www.w3.org/1999/xlink" width="66.667" height="66.667" class="st3" color-interpolation-filters="sRGB" viewBox="0 0 50 50" xml:space="preserve"><style type="text/css">.st1,.st2{fill:#111012;stroke:none;stroke-linecap:round;stroke-linejoin:round;stroke-width:.75}.st2{fill:#f9f2ff;stroke:#f9f2ff;stroke-width:.25}.st3{fill:none;fill-rule:evenodd;font-size:12px;overflow:visible;stroke-linecap:square;stroke-miterlimit:3}</style><g><title>VBackground-1</title><g id="shape1-1"><title>Solid</title><rect width="50" height="50" x="0" y="0" class="st1"/></g></g><g><title>Page-1</title><g id="group21-3"><title>Internet</title><g id="group22-4"><title>Sheet.22</title><g id="group23-5" transform="translate(4.0308,-38.9744)"><title>Sheet.23</title><g id="shape24-6" transform="translate(11.3259,5.68434E-14)"><title>Sheet.24</title><path d="M0 50 L8.35 50 L8.35 39.78 C5.81 40.34 3.41 42.67 1.48 46.48 C0.93 47.57 0.43 48.75 0 50 Z" class="st2"/></g><g id="shape25-8"><title>Sheet.25</title><path d="M10.61 45.31 C12.04 42.5 13.74 40.36 15.61 38.97 C9.1 40.43 3.53 44.47 0 50 L8.72 50 C9.25 48.33 9.88 46.75 10.61 45.31 Z" class="st2"/></g></g><g id="group26-10" transform="translate(0.0092827,-26.3485)"><title>Sheet.26</title><g id="shape27-11" transform="translate(13.1846,0)"><title>Sheet.27</title><path d="M10.52 50 L10.52 39.9 L1.39 39.9 C0.58 43 0.1 46.42 0 50 L10.52 50 L10.52 50 Z" class="st2"/></g><g id="shape28-13" transform="translate(0,-0.000215702)"><title>Sheet.28</title><path d="M12.03 39.9 L2.6 39.9 C1.1 42.97 0.18 46.38 0 50 L10.71 50 C10.81 46.45 11.26 43.04 12.03 39.9 Z" class="st2"/></g></g><g id="group29-15" transform="translate(2.43805E-13,-13.5543)"><title>Sheet.29</title><g id="shape30-16" transform="translate(13.1863,-4.26326E-14)"><title>Sheet.30</title><path d="M10.52 50 L10.52 39.73 L0 39.73 C0.08 43.37 0.55 46.85 1.37 50 L10.52 50 Z" class="st2"/></g><g id="shape31-18" transform="translate(0,-0.000215702)"><title>Sheet.31</title><path d="M10.72 39.73 L0 39.73 C0.16 43.41 1.09 46.89 2.61 50 L12.01 50 C11.24 46.81 10.79 43.33 10.72 39.73 Z" class="st2"/></g></g><g id="group32-20" transform="translate(4.03165,-0.0509057)"><title>Sheet.32</title><g id="shape33-21" transform="translate(11.2852,-0.647322)"><title>Sheet.33</title><path d="M0 39.67 C0.44 40.96 0.95 42.18 1.52 43.31 C3.45 47.11 5.85 49.44 8.39 50 L8.39 39.67 L0 39.67 Z" class="st2"/></g><g id="shape34-23"><title>Sheet.34</title><path d="M10.61 43.82 C9.87 42.35 9.22 40.74 8.68 39.02 L0 39.02 C3.49 44.49 8.98 48.51 15.4 50 C13.61 48.61 11.98 46.53 10.61 43.82 Z" class="st2"/></g></g><g id="group35-25" transform="translate(26.1802,-2.4869E-13)"><title>Sheet.35</title><g id="shape36-26" transform="translate(4.15401,0)"><title>Sheet.36</title><path d="M6.79 38.97 C6.24 40.69 5.6 42.3 4.86 43.77 C3.47 46.51 1.82 48.61 0 50 C6.52 48.55 12.1 44.51 15.63 38.97 L6.79 38.97 Z" class="st2"/></g><g id="shape37-28" transform="translate(9.89209E-14,-0.710739)"><title>Sheet.37</title><path d="M8.34 39.68 L0 39.68 L0 50 C2.52 49.42 4.91 47.1 6.82 43.32 C7.39 42.19 7.9 40.97 8.34 39.68 Z" class="st2"/></g></g><g id="group38-30" transform="translate(26.1802,-13.5545)"><title>Sheet.38</title><g id="shape39-31"><title>Sheet.39</title><path d="M0 39.73 L0 50 L9.1 50 C9.92 46.85 10.39 43.36 10.47 39.73 L0 39.73 Z" class="st2"/></g><g id="shape40-33" transform="translate(11.6454,0)"><title>Sheet.40</title><path d="M1.29 39.73 C1.22 43.33 0.77 46.81 0 50 L9.56 50 C11.09 46.89 12.01 43.41 12.17 39.73 L1.29 39.73 Z" class="st2"/></g></g><g id="shape41-35" transform="translate(27.1243,-26.4328)"><title>Sheet.41</title><path d="M19.71 47.84 L12.1 40.06 L15.8 38.26 C16.24 38.05 16.52 37.59 16.51 37.1 C16.5 36.6 16.21 36.15 15.76 35.96 L1.82 29.9 C1.35 29.7 0.82 29.8 0.46 30.17 C0.11 30.53 0 31.08 0.2 31.55 L6.01 45.64 C6.2 46.08 6.62 46.38 7.09 46.41 C7.11 46.41 7.13 46.41 7.15 46.41 C7.6 46.41 8.02 46.16 8.24 45.75 L10.32 41.81 L17.97 49.63 C18.21 49.88 18.53 50 18.84 50 C19.16 50 19.47 49.88 19.71 49.63 C20.2 49.14 20.2 48.34 19.71 47.84 Z" class="st2"/></g></g></g></g></svg>