<?xml version="1.0" encoding="UTF-8" standalone="no"?>
<!DOCTYPE svg PUBLIC "-//W3C//DTD SVG 1.1//EN" "http://www.w3.org/Graphics/SVG/1.1/DTD/svg11.dtd">
<!-- Generated by Microsoft Visio, SVG Export www_icon.svg Page-1 -->
<svg xmlns="http://www.w3.org/2000/svg" xmlns:xlink="http://www.w3.org/1999/xlink" xmlns:ev="http://www.w3.org/2001/xml-events"
		xmlns:v="http://schemas.microsoft.com/visio/2003/SVGExtensions/" width="0.694444in" height="0.694444in" viewBox="0 0 50 50"
		xml:space="preserve" color-interpolation-filters="sRGB" class="st3">
	<v:documentProperties v:langID="1033" v:viewMarkup="false">
		<v:userDefs>
			<v:ud v:nameU="msvNoAutoConnect" v:val="VT0(1):26"/>
		</v:userDefs>
	</v:documentProperties>

	<style type="text/css">
	<![CDATA[
		.st1 {fill:#111012;stroke:none;stroke-linecap:round;stroke-linejoin:round;stroke-width:0.75}
		.st2 {fill:#f9f2ff;stroke:#f9f2ff;stroke-linecap:round;stroke-linejoin:round;stroke-width:0.25}
		.st3 {fill:none;fill-rule:evenodd;font-size:12px;overflow:visible;stroke-linecap:square;stroke-miterlimit:3}
	]]>
	</style>

	<g v:mID="4" v:index="1" v:groupContext="backgroundPage">
		<v:userDefs>
			<v:ud v:nameU="msvVisioCreated" v:prompt="" v:val="VT0(0):26"/>
		</v:userDefs>
		<title>VBackground-1</title>
		<v:pageProperties width="0.694444" height="0.694444" v:drawingScale="0.0138889" v:pageScale="0.0138889" v:drawingUnits="29"
				v:shadowOffsetX="9" v:shadowOffsetY="-9"/>
		<g id="shape1-1" v:mID="1" v:groupContext="shape">
			<title>Solid</title>
			<v:userDefs>
				<v:ud v:nameU="Background" v:val="VT0(0):26"/>
				<v:ud v:nameU="visVersion" v:val="VT0(15):26"/>
				<v:ud v:nameU="msvShapeCategories" v:prompt="" v:val="VT4(DoNotContain)"/>
				<v:ud v:nameU="msvVisioCreated" v:prompt="" v:val="VT0(0):26"/>
			</v:userDefs>
			<rect x="0" y="0" width="50" height="50" class="st1"/>
		</g>
	</g>
	<g v:mID="0" v:index="2" v:groupContext="foregroundPage">
		<title>Page-1</title>
		<v:pageProperties v:drawingScale="0.0138889" v:pageScale="0.0138889" v:drawingUnits="29" v:shadowOffsetX="9"
				v:shadowOffsetY="-9"/>
		<v:layer v:name="Common Icons" v:index="0"/>
		<g id="group21-3" v:mID="21" v:groupContext="group" v:layerMember="0">
			<v:userDefs>
				<v:ud v:nameU="visVersion" v:prompt="" v:val="VT0(17):26"/>
				<v:ud v:nameU="visAltText" v:prompt="" v:val="VT4(Internet)"/>
				<v:ud v:nameU="visAltDescription" v:prompt="" v:val="VT4(Internet Icon.)"/>
				<v:ud v:nameU="Font" v:prompt="" v:val="VT0(243):26"/>
			</v:userDefs>
			<title>Internet</title>
			<g id="group22-4" v:mID="22" v:groupContext="group" v:layerMember="0">
				<title>Sheet.22</title>
				<g id="group23-5" transform="translate(4.0308,-38.9744)" v:mID="23" v:groupContext="group" v:layerMember="0">
					<title>Sheet.23</title>
					<g id="shape24-6" v:mID="24" v:groupContext="shape" v:layerMember="0"
							transform="translate(11.3259,5.68434E-14)">
						<title>Sheet.24</title>
						<path d="M0 50 L8.35 50 L8.35 39.78 C5.81 40.34 3.41 42.67 1.48 46.48 C0.93 47.57 0.43 48.75 0 50 Z"
								class="st2"/>
					</g>
					<g id="shape25-8" v:mID="25" v:groupContext="shape" v:layerMember="0">
						<title>Sheet.25</title>
						<path d="M10.61 45.31 C12.04 42.5 13.74 40.36 15.61 38.97 C9.1 40.43 3.53 44.47 0 50 L8.72 50 C9.25 48.33
									 9.88 46.75 10.61 45.31 Z" class="st2"/>
					</g>
				</g>
				<g id="group26-10" transform="translate(0.0092827,-26.3485)" v:mID="26" v:groupContext="group" v:layerMember="0">
					<title>Sheet.26</title>
					<g id="shape27-11" v:mID="27" v:groupContext="shape" v:layerMember="0" transform="translate(13.1846,0)">
						<title>Sheet.27</title>
						<path d="M10.52 50 L10.52 39.9 L1.39 39.9 C0.58 43 0.1 46.42 0 50 L10.52 50 L10.52 50 Z" class="st2"/>
					</g>
					<g id="shape28-13" v:mID="28" v:groupContext="shape" v:layerMember="0" transform="translate(0,-0.000215702)">
						<title>Sheet.28</title>
						<path d="M12.03 39.9 L2.6 39.9 C1.1 42.97 0.18 46.38 0 50 L10.71 50 C10.81 46.45 11.26 43.04 12.03 39.9 Z"
								class="st2"/>
					</g>
				</g>
				<g id="group29-15" transform="translate(2.43805E-13,-13.5543)" v:mID="29" v:groupContext="group" v:layerMember="0">
					<title>Sheet.29</title>
					<g id="shape30-16" v:mID="30" v:groupContext="shape" v:layerMember="0"
							transform="translate(13.1863,-4.26326E-14)">
						<title>Sheet.30</title>
						<path d="M10.52 50 L10.52 39.73 L0 39.73 C0.08 43.37 0.55 46.85 1.37 50 L10.52 50 Z" class="st2"/>
					</g>
					<g id="shape31-18" v:mID="31" v:groupContext="shape" v:layerMember="0" transform="translate(0,-0.000215702)">
						<title>Sheet.31</title>
						<path d="M10.72 39.73 L0 39.73 C0.16 43.41 1.09 46.89 2.61 50 L12.01 50 C11.24 46.81 10.79 43.33 10.72 39.73
									 Z" class="st2"/>
					</g>
				</g>
				<g id="group32-20" transform="translate(4.03165,-0.0509057)" v:mID="32" v:groupContext="group" v:layerMember="0">
					<title>Sheet.32</title>
					<g id="shape33-21" v:mID="33" v:groupContext="shape" v:layerMember="0" transform="translate(11.2852,-0.647322)">
						<title>Sheet.33</title>
						<path d="M0 39.67 C0.44 40.96 0.95 42.18 1.52 43.31 C3.45 47.11 5.85 49.44 8.39 50 L8.39 39.67 L0 39.67 Z"
								class="st2"/>
					</g>
					<g id="shape34-23" v:mID="34" v:groupContext="shape" v:layerMember="0">
						<title>Sheet.34</title>
						<path d="M10.61 43.82 C9.87 42.35 9.22 40.74 8.68 39.02 L0 39.02 C3.49 44.49 8.98 48.51 15.4 50 C13.61 48.61
									 11.98 46.53 10.61 43.82 Z" class="st2"/>
					</g>
				</g>
				<g id="group35-25" transform="translate(26.1802,-2.4869E-13)" v:mID="35" v:groupContext="group" v:layerMember="0">
					<title>Sheet.35</title>
					<g id="shape36-26" v:mID="36" v:groupContext="shape" v:layerMember="0" transform="translate(4.15401,0)">
						<title>Sheet.36</title>
						<path d="M6.79 38.97 C6.24 40.69 5.6 42.3 4.86 43.77 C3.47 46.51 1.82 48.61 0 50 C6.52 48.55 12.1 44.51 15.63
									 38.97 L6.79 38.97 Z" class="st2"/>
					</g>
					<g id="shape37-28" v:mID="37" v:groupContext="shape" v:layerMember="0"
							transform="translate(9.89209E-14,-0.710739)">
						<title>Sheet.37</title>
						<path d="M8.34 39.68 L0 39.68 L0 50 C2.52 49.42 4.91 47.1 6.82 43.32 C7.39 42.19 7.9 40.97 8.34 39.68 Z"
								class="st2"/>
					</g>
				</g>
				<g id="group38-30" transform="translate(26.1802,-13.5545)" v:mID="38" v:groupContext="group" v:layerMember="0">
					<title>Sheet.38</title>
					<g id="shape39-31" v:mID="39" v:groupContext="shape" v:layerMember="0">
						<title>Sheet.39</title>
						<path d="M0 39.73 L0 50 L9.1 50 C9.92 46.85 10.39 43.36 10.47 39.73 L0 39.73 Z" class="st2"/>
					</g>
					<g id="shape40-33" v:mID="40" v:groupContext="shape" v:layerMember="0" transform="translate(11.6454,0)">
						<title>Sheet.40</title>
						<path d="M1.29 39.73 C1.22 43.33 0.77 46.81 0 50 L9.56 50 C11.09 46.89 12.01 43.41 12.17 39.73 L1.29 39.73
									 Z" class="st2"/>
					</g>
				</g>
				<g id="shape41-35" v:mID="41" v:groupContext="shape" v:layerMember="0" transform="translate(27.1243,-26.4328)">
					<title>Sheet.41</title>
					<path d="M19.71 47.84 L12.1 40.06 L15.8 38.26 C16.24 38.05 16.52 37.59 16.51 37.1 C16.5 36.6 16.21 36.15 15.76
								 35.96 L1.82 29.9 C1.35 29.7 0.82 29.8 0.46 30.17 C0.11 30.53 0 31.08 0.2 31.55 L6.01 45.64 C6.2
								 46.08 6.62 46.38 7.09 46.41 C7.11 46.41 7.13 46.41 7.15 46.41 C7.6 46.41 8.02 46.16 8.24 45.75 L10.32
								 41.81 L17.97 49.63 C18.21 49.88 18.53 50 18.84 50 C19.16 50 19.47 49.88 19.71 49.63 C20.2 49.14
								 20.2 48.34 19.71 47.84 Z" class="st2"/>
				</g>
			</g>
		</g>
	</g>
</svg>
