<?xml version="1.0" encoding="UTF-8" standalone="no"?>
<!DOCTYPE svg PUBLIC "-//W3C//DTD SVG 1.1//EN" "http://www.w3.org/Graphics/SVG/1.1/DTD/svg11.dtd">
<!-- Generated by Microsoft Visio, SVG Export hardware_icon.svg Page-1 -->
<svg xmlns="http://www.w3.org/2000/svg" xmlns:xlink="http://www.w3.org/1999/xlink" xmlns:ev="http://www.w3.org/2001/xml-events"
		xmlns:v="http://schemas.microsoft.com/visio/2003/SVGExtensions/" width="0.694444in" height="0.520833in"
		viewBox="0 0 50 37.5" xml:space="preserve" color-interpolation-filters="sRGB" class="st3">
	<v:documentProperties v:langID="1033" v:viewMarkup="false">
		<v:userDefs>
			<v:ud v:nameU="msvNoAutoConnect" v:val="VT0(1):26"/>
		</v:userDefs>
	</v:documentProperties>

	<style type="text/css">
	<![CDATA[
		.st1 {fill:#111012;stroke:none;stroke-linecap:round;stroke-linejoin:round;stroke-width:0.75}
		.st2 {fill:#f9f2ff;stroke:#f9f2ff;stroke-linecap:round;stroke-linejoin:round;stroke-width:0.25}
		.st3 {fill:none;fill-rule:evenodd;font-size:12px;overflow:visible;stroke-linecap:square;stroke-miterlimit:3}
	]]>
	</style>

	<g v:mID="4" v:index="1" v:groupContext="backgroundPage">
		<v:userDefs>
			<v:ud v:nameU="msvVisioCreated" v:prompt="" v:val="VT0(0):26"/>
		</v:userDefs>
		<title>VBackground-1</title>
		<v:pageProperties width="0.694444" height="0.520833" v:drawingScale="0.0138889" v:pageScale="0.0138889" v:drawingUnits="29"
				v:shadowOffsetX="9" v:shadowOffsetY="-9"/>
		<g id="shape1-1" v:mID="1" v:groupContext="shape">
			<title>Solid</title>
			<v:userDefs>
				<v:ud v:nameU="Background" v:val="VT0(0):26"/>
				<v:ud v:nameU="visVersion" v:val="VT0(15):26"/>
				<v:ud v:nameU="msvShapeCategories" v:prompt="" v:val="VT4(DoNotContain)"/>
				<v:ud v:nameU="msvVisioCreated" v:prompt="" v:val="VT0(0):26"/>
			</v:userDefs>
			<rect x="0" y="0" width="50" height="37.5" class="st1"/>
		</g>
	</g>
	<g v:mID="0" v:index="2" v:groupContext="foregroundPage">
		<title>Page-1</title>
		<v:pageProperties v:drawingScale="0.0138889" v:pageScale="0.0138889" v:drawingUnits="29" v:shadowOffsetX="9"
				v:shadowOffsetY="-9"/>
		<v:layer v:name="Common Icons" v:index="0"/>
		<g id="group15-3" v:mID="15" v:groupContext="group" v:layerMember="0">
			<v:userDefs>
				<v:ud v:nameU="visVersion" v:prompt="" v:val="VT0(17):26"/>
				<v:ud v:nameU="visAltText" v:prompt="" v:val="VT4(Hard drive)"/>
				<v:ud v:nameU="visAltDescription" v:prompt="" v:val="VT4(Hard drive Icon.)"/>
				<v:ud v:nameU="Font" v:prompt="" v:val="VT0(243):26"/>
			</v:userDefs>
			<title>Hard drive</title>
			<g id="group16-4" v:mID="16" v:groupContext="group" v:layerMember="0">
				<title>Sheet.16</title>
				<g id="shape17-5" v:mID="17" v:groupContext="shape" v:layerMember="0" transform="translate(0,-10.7468)">
					<title>Sheet.17</title>
					<path d="M50 37.5 L0 37.5 L8.06 10.75 L41.94 10.75 L50 37.5 Z" class="st2"/>
				</g>
				<g id="shape18-7" v:mID="18" v:groupContext="shape" v:layerMember="0">
					<title>Sheet.18</title>
					<path d="M0 28.98 L0 37.5 L50 37.5 L50 28.98 L0 28.98 ZM33.06 35.37 C31.91 35.37 30.97 34.46 30.97 33.33 C30.97
								 32.2 31.91 31.29 33.06 31.29 C34.21 31.29 35.14 32.2 35.14 33.33 C35.14 34.46 34.21 35.37 33.06
								 35.37 ZM38.89 35.37 C37.74 35.37 36.81 34.46 36.81 33.33 C36.81 32.2 37.74 31.29 38.89 31.29 C40.04
								 31.29 40.97 32.2 40.97 33.33 C40.97 34.46 40.04 35.37 38.89 35.37 ZM44.72 35.37 C43.57 35.37 42.64
								 34.46 42.64 33.33 C42.64 32.2 43.57 31.29 44.72 31.29 C45.87 31.29 46.81 32.2 46.81 33.33 C46.81
								 34.46 45.87 35.37 44.72 35.37 Z" class="st2"/>
				</g>
			</g>
		</g>
	</g>
</svg>
